<?xml version="1.0" standalone="no"?><!DOCTYPE svg PUBLIC "-//W3C//DTD SVG 1.1//EN" "http://www.w3.org/Graphics/SVG/1.1/DTD/svg11.dtd"><svg xmlns:xlink="http://www.w3.org/1999/xlink" xmlns="http://www.w3.org/2000/svg" version="1.1" width="1328" height="705"><defs><clipPath id="highcharts-6"><rect rx="0" ry="0" fill="none" x="0" y="0" width="9999" height="705" stroke-width="0.000001"></rect></clipPath><clipPath id="highcharts-7"><rect fill="none" x="0" y="0" width="1248" height="585"></rect></clipPath></defs><rect rx="5" ry="5" fill="#FFFFFF" x="0" y="0" width="1328" height="705" stroke-width="0.000001"></rect><g class="highcharts-grid" ></g><g class="highcharts-grid" ><path fill="none" d="M 60 570.5 L 1308 570.5" stroke="#C0C0C0" stroke-width="1" ></path><path fill="none" d="M 60 505.5 L 1308 505.5" stroke="#C0C0C0" stroke-width="1" ></path><path fill="none" d="M 60 440.5 L 1308 440.5" stroke="#C0C0C0" stroke-width="1" ></path><path fill="none" d="M 60 375.5 L 1308 375.5" stroke="#C0C0C0" stroke-width="1" ></path><path fill="none" d="M 60 310.5 L 1308 310.5" stroke="#C0C0C0" stroke-width="1" ></path><path fill="none" d="M 60 245.5 L 1308 245.5" stroke="#C0C0C0" stroke-width="1" ></path><path fill="none" d="M 60 180.5 L 1308 180.5" stroke="#C0C0C0" stroke-width="1" ></path><path fill="none" d="M 60 115.5 L 1308 115.5" stroke="#C0C0C0" stroke-width="1" ></path><path fill="none" d="M 60 50.5 L 1308 50.5" stroke="#C0C0C0" stroke-width="1" ></path><path fill="none" d="M 60 635.5 L 1308 635.5" stroke="#C0C0C0" stroke-width="1" ></path></g><g class="highcharts-axis" ><path fill="none" d="M 198.5 635 L 198.5 640" stroke="#C0D0E0" stroke-width="1"></path><path fill="none" d="M 267.5 635 L 267.5 640" stroke="#C0D0E0" stroke-width="1"></path><path fill="none" d="M 336.5 635 L 336.5 640" stroke="#C0D0E0" stroke-width="1"></path><path fill="none" d="M 406.5 635 L 406.5 640" stroke="#C0D0E0" stroke-width="1"></path><path fill="none" d="M 475.5 635 L 475.5 640" stroke="#C0D0E0" stroke-width="1"></path><path fill="none" d="M 544.5 635 L 544.5 640" stroke="#C0D0E0" stroke-width="1"></path><path fill="none" d="M 614.5 635 L 614.5 640" stroke="#C0D0E0" stroke-width="1"></path><path fill="none" d="M 683.5 635 L 683.5 640" stroke="#C0D0E0" stroke-width="1"></path><path fill="none" d="M 752.5 635 L 752.5 640" stroke="#C0D0E0" stroke-width="1"></path><path fill="none" d="M 822.5 635 L 822.5 640" stroke="#C0D0E0" stroke-width="1"></path><path fill="none" d="M 891.5 635 L 891.5 640" stroke="#C0D0E0" stroke-width="1"></path><path fill="none" d="M 960.5 635 L 960.5 640" stroke="#C0D0E0" stroke-width="1"></path><path fill="none" d="M 1030.5 635 L 1030.5 640" stroke="#C0D0E0" stroke-width="1"></path><path fill="none" d="M 1099.5 635 L 1099.5 640" stroke="#C0D0E0" stroke-width="1"></path><path fill="none" d="M 1168.5 635 L 1168.5 640" stroke="#C0D0E0" stroke-width="1"></path><path fill="none" d="M 1238.5 635 L 1238.5 640" stroke="#C0D0E0" stroke-width="1"></path><path fill="none" d="M 1307.5 635 L 1307.5 640" stroke="#C0D0E0" stroke-width="1"></path><path fill="none" d="M 128.5 635 L 128.5 640" stroke="#C0D0E0" stroke-width="1"></path><path fill="none" d="M 60 635.5 L 1308 635.5" stroke="#C0D0E0" stroke-width="1"  visibility="visible"></path></g><g class="highcharts-axis" ><text x="17.640625" y="342.5" style="font-family:'lucida grande', 'lucida sans unicode', verdana, arial, helvetica, sans-serif;font-size:12px;color:#6d869f;font-weight:bold;fill:#6d869f;"  transform="rotate(270 17.640625 342)" text-anchor="middle" visibility="visible"><tspan x="17.640625">Relative Frequencies</tspan></text></g><g class="highcharts-series-group" ><g class="highcharts-series" visibility="visible"  transform="translate(60,50)" clip-path="url(#highcharts-7)"><path fill="none" d="M 34.666666666666664 131.2 C 34.666666666666664 131.2 76.26666666666667 488.1 104 498.1 C 131.73333333333332 508.1 145.6 508.1 173.33333333333331 508.1 C 201.06666666666666 508.1 214.9333333333333 508.1 242.66666666666666 494.9 C 270.4 481.69999999999993 284.26666666666665 402 312 402 C 339.7333333333333 402 353.6 418.76000000000005 381.3333333333333 425.6 C 409.0666666666667 432.44000000000005 422.9333333333333 432 450.6666666666667 436.2 C 478.4 440.4 492.2666666666667 446.6 520 446.6 C 547.7333333333333 446.6 561.6 288.3 589.3333333333333 288.3 C 617.0666666666666 288.3 630.9333333333333 375.1 658.6666666666666 375.1 C 686.4 375.1 700.2666666666667 331.3 727.9999999999999 331.3 C 755.7333333333332 331.3 769.6 483.3 797.3333333333333 483.3 C 825.0666666666666 483.3 838.9333333333332 403.80000000000007 866.6666666666666 394.1 C 894.4 384.4 908.2666666666667 394.1 935.9999999999999 384.4 C 963.7333333333332 374.69999999999993 977.6 364.9199999999999 1005.3333333333333 344.6 C 1033.0666666666668 324.27999999999986 1046.9333333333332 339.2000000000003 1074.6666666666667 282.8 C 1102.4 226.40000000000023 1116.2666666666669 62.6 1144 62.6 C 1171.7333333333331 62.6 1213.3333333333333 284.2 1213.3333333333333 284.2" stroke="black" stroke-width="5"   stroke-opacity="0.049999999999999996" transform="translate(1, 1)"></path><path fill="none" d="M 34.666666666666664 131.2 C 34.666666666666664 131.2 76.26666666666667 488.1 104 498.1 C 131.73333333333332 508.1 145.6 508.1 173.33333333333331 508.1 C 201.06666666666666 508.1 214.9333333333333 508.1 242.66666666666666 494.9 C 270.4 481.69999999999993 284.26666666666665 402 312 402 C 339.7333333333333 402 353.6 418.76000000000005 381.3333333333333 425.6 C 409.0666666666667 432.44000000000005 422.9333333333333 432 450.6666666666667 436.2 C 478.4 440.4 492.2666666666667 446.6 520 446.6 C 547.7333333333333 446.6 561.6 288.3 589.3333333333333 288.3 C 617.0666666666666 288.3 630.9333333333333 375.1 658.6666666666666 375.1 C 686.4 375.1 700.2666666666667 331.3 727.9999999999999 331.3 C 755.7333333333332 331.3 769.6 483.3 797.3333333333333 483.3 C 825.0666666666666 483.3 838.9333333333332 403.80000000000007 866.6666666666666 394.1 C 894.4 384.4 908.2666666666667 394.1 935.9999999999999 384.4 C 963.7333333333332 374.69999999999993 977.6 364.9199999999999 1005.3333333333333 344.6 C 1033.0666666666668 324.27999999999986 1046.9333333333332 339.2000000000003 1074.6666666666667 282.8 C 1102.4 226.40000000000023 1116.2666666666669 62.6 1144 62.6 C 1171.7333333333331 62.6 1213.3333333333333 284.2 1213.3333333333333 284.2" stroke="black" stroke-width="3"   stroke-opacity="0.09999999999999999" transform="translate(1, 1)"></path><path fill="none" d="M 34.666666666666664 131.2 C 34.666666666666664 131.2 76.26666666666667 488.1 104 498.1 C 131.73333333333332 508.1 145.6 508.1 173.33333333333331 508.1 C 201.06666666666666 508.1 214.9333333333333 508.1 242.66666666666666 494.9 C 270.4 481.69999999999993 284.26666666666665 402 312 402 C 339.7333333333333 402 353.6 418.76000000000005 381.3333333333333 425.6 C 409.0666666666667 432.44000000000005 422.9333333333333 432 450.6666666666667 436.2 C 478.4 440.4 492.2666666666667 446.6 520 446.6 C 547.7333333333333 446.6 561.6 288.3 589.3333333333333 288.3 C 617.0666666666666 288.3 630.9333333333333 375.1 658.6666666666666 375.1 C 686.4 375.1 700.2666666666667 331.3 727.9999999999999 331.3 C 755.7333333333332 331.3 769.6 483.3 797.3333333333333 483.3 C 825.0666666666666 483.3 838.9333333333332 403.80000000000007 866.6666666666666 394.1 C 894.4 384.4 908.2666666666667 394.1 935.9999999999999 384.4 C 963.7333333333332 374.69999999999993 977.6 364.9199999999999 1005.3333333333333 344.6 C 1033.0666666666668 324.27999999999986 1046.9333333333332 339.2000000000003 1074.6666666666667 282.8 C 1102.4 226.40000000000023 1116.2666666666669 62.6 1144 62.6 C 1171.7333333333331 62.6 1213.3333333333333 284.2 1213.3333333333333 284.2" stroke="black" stroke-width="1"   stroke-opacity="0.15" transform="translate(1, 1)"></path><path fill="none" d="M 34.666666666666664 131.2 C 34.666666666666664 131.2 76.26666666666667 488.1 104 498.1 C 131.73333333333332 508.1 145.6 508.1 173.33333333333331 508.1 C 201.06666666666666 508.1 214.9333333333333 508.1 242.66666666666666 494.9 C 270.4 481.69999999999993 284.26666666666665 402 312 402 C 339.7333333333333 402 353.6 418.76000000000005 381.3333333333333 425.6 C 409.0666666666667 432.44000000000005 422.9333333333333 432 450.6666666666667 436.2 C 478.4 440.4 492.2666666666667 446.6 520 446.6 C 547.7333333333333 446.6 561.6 288.3 589.3333333333333 288.3 C 617.0666666666666 288.3 630.9333333333333 375.1 658.6666666666666 375.1 C 686.4 375.1 700.2666666666667 331.3 727.9999999999999 331.3 C 755.7333333333332 331.3 769.6 483.3 797.3333333333333 483.3 C 825.0666666666666 483.3 838.9333333333332 403.80000000000007 866.6666666666666 394.1 C 894.4 384.4 908.2666666666667 394.1 935.9999999999999 384.4 C 963.7333333333332 374.69999999999993 977.6 364.9199999999999 1005.3333333333333 344.6 C 1033.0666666666668 324.27999999999986 1046.9333333333332 339.2000000000003 1074.6666666666667 282.8 C 1102.4 226.40000000000023 1116.2666666666669 62.6 1144 62.6 C 1171.7333333333331 62.6 1213.3333333333333 284.2 1213.3333333333333 284.2" stroke="#0000ff" stroke-width="1" ></path></g><g class="highcharts-markers" visibility="visible"  transform="translate(60,50)" clip-path="none"><path fill="#0000ff" d="M 1213.3333333333333 280.2 C 1218.6613333333332 280.2 1218.6613333333332 288.2 1213.3333333333333 288.2 C 1208.0053333333333 288.2 1208.0053333333333 280.2 1213.3333333333333 280.2 Z" stroke="#FFFFFF" stroke-width="0.000001"></path><path fill="#0000ff" d="M 1144 58.6 C 1149.328 58.6 1149.328 66.6 1144 66.6 C 1138.672 66.6 1138.672 58.6 1144 58.6 Z" stroke="#FFFFFF" stroke-width="0.000001"></path><path fill="#0000ff" d="M 1074.6666666666667 278.8 C 1079.9946666666667 278.8 1079.9946666666667 286.8 1074.6666666666667 286.8 C 1069.3386666666668 286.8 1069.3386666666668 278.8 1074.6666666666667 278.8 Z" stroke="#FFFFFF" stroke-width="0.000001"></path><path fill="#0000ff" d="M 1005.3333333333333 340.6 C 1010.6613333333332 340.6 1010.6613333333332 348.6 1005.3333333333333 348.6 C 1000.0053333333333 348.6 1000.0053333333333 340.6 1005.3333333333333 340.6 Z" stroke="#FFFFFF" stroke-width="0.000001"></path><path fill="#0000ff" d="M 935.9999999999999 380.4 C 941.3279999999999 380.4 941.3279999999999 388.4 935.9999999999999 388.4 C 930.6719999999999 388.4 930.6719999999999 380.4 935.9999999999999 380.4 Z" stroke="#FFFFFF" stroke-width="0.000001"></path><path fill="#0000ff" d="M 866.6666666666666 390.1 C 871.9946666666666 390.1 871.9946666666666 398.1 866.6666666666666 398.1 C 861.3386666666667 398.1 861.3386666666667 390.1 866.6666666666666 390.1 Z" stroke="#FFFFFF" stroke-width="0.000001"></path><path fill="#0000ff" d="M 797.3333333333333 479.3 C 802.6613333333332 479.3 802.6613333333332 487.3 797.3333333333333 487.3 C 792.0053333333333 487.3 792.0053333333333 479.3 797.3333333333333 479.3 Z" stroke="#FFFFFF" stroke-width="0.000001"></path><path fill="#0000ff" d="M 727.9999999999999 327.3 C 733.3279999999999 327.3 733.3279999999999 335.3 727.9999999999999 335.3 C 722.6719999999999 335.3 722.6719999999999 327.3 727.9999999999999 327.3 Z" stroke="#FFFFFF" stroke-width="0.000001"></path><path fill="#0000ff" d="M 658.6666666666666 371.1 C 663.9946666666666 371.1 663.9946666666666 379.1 658.6666666666666 379.1 C 653.3386666666667 379.1 653.3386666666667 371.1 658.6666666666666 371.1 Z" stroke="#FFFFFF" stroke-width="0.000001"></path><path fill="#0000ff" d="M 589.3333333333333 284.3 C 594.6613333333332 284.3 594.6613333333332 292.3 589.3333333333333 292.3 C 584.0053333333333 292.3 584.0053333333333 284.3 589.3333333333333 284.3 Z" stroke="#FFFFFF" stroke-width="0.000001"></path><path fill="#0000ff" d="M 520 442.6 C 525.328 442.6 525.328 450.6 520 450.6 C 514.672 450.6 514.672 442.6 520 442.6 Z" stroke="#FFFFFF" stroke-width="0.000001"></path><path fill="#0000ff" d="M 450.6666666666667 432.2 C 455.99466666666666 432.2 455.99466666666666 440.2 450.6666666666667 440.2 C 445.3386666666667 440.2 445.3386666666667 432.2 450.6666666666667 432.2 Z" stroke="#FFFFFF" stroke-width="0.000001"></path><path fill="#0000ff" d="M 381.3333333333333 421.6 C 386.6613333333333 421.6 386.6613333333333 429.6 381.3333333333333 429.6 C 376.00533333333334 429.6 376.00533333333334 421.6 381.3333333333333 421.6 Z" stroke="#FFFFFF" stroke-width="0.000001"></path><path fill="#0000ff" d="M 312 398 C 317.328 398 317.328 406 312 406 C 306.672 406 306.672 398 312 398 Z" stroke="#FFFFFF" stroke-width="0.000001"></path><path fill="#0000ff" d="M 242.66666666666666 490.9 C 247.99466666666666 490.9 247.99466666666666 498.9 242.66666666666666 498.9 C 237.33866666666665 498.9 237.33866666666665 490.9 242.66666666666666 490.9 Z" stroke="#FFFFFF" stroke-width="0.000001"></path><path fill="#0000ff" d="M 173.33333333333331 504.1 C 178.66133333333332 504.1 178.66133333333332 512.1 173.33333333333331 512.1 C 168.0053333333333 512.1 168.0053333333333 504.1 173.33333333333331 504.1 Z" stroke="#FFFFFF" stroke-width="0.000001"></path><path fill="#0000ff" d="M 104 494.1 C 109.328 494.1 109.328 502.1 104 502.1 C 98.672 502.1 98.672 494.1 104 494.1 Z" stroke="#FFFFFF" stroke-width="0.000001"></path><path fill="#0000ff" d="M 34.666666666666664 127.19999999999999 C 39.99466666666667 127.19999999999999 39.99466666666667 135.2 34.666666666666664 135.2 C 29.338666666666665 135.2 29.338666666666665 127.19999999999999 34.666666666666664 127.19999999999999 Z" stroke="#FFFFFF" stroke-width="0.000001"></path></g><g class="highcharts-series" visibility="visible"  transform="translate(60,50)" clip-path="url(#highcharts-7)"><path fill="none" d="M 34.666666666666664 383.3 C 34.666666666666664 383.3 76.26666666666667 363.9 104 363.9 C 131.73333333333332 363.9 145.6 373.5 173.33333333333331 373.5 C 201.06666666666666 373.5 214.9333333333333 179.6 242.66666666666666 179.6 C 270.4 179.6 284.26666666666665 451.9 312 451.9 C 339.7333333333333 451.9 353.6 401.9 381.3333333333333 399 C 409.0666666666667 396.1 422.9333333333333 399 450.6666666666667 396.1 C 478.4 393.20000000000005 492.2666666666667 239.1 520 239.1 C 547.7333333333333 239.1 561.6 263.4000000000001 589.3333333333333 304.8 C 617.0666666666666 346.2000000000001 630.9333333333333 446.1 658.6666666666666 446.1 C 686.4 446.1 700.2666666666667 427.5 727.9999999999999 427.5 C 755.7333333333332 427.5 769.6 427.5 797.3333333333333 442.7 C 825.0666666666666 457.9 838.9333333333332 523.6 866.6666666666666 523.6 C 894.4 523.6 908.2666666666667 344.3 935.9999999999999 344.3 C 963.7333333333332 344.3 977.6 428.09999999999997 1005.3333333333333 443.9 C 1033.0666666666668 459.7 1046.9333333333332 459.7 1074.6666666666667 459.7 C 1102.4 459.7 1116.2666666666669 321 1144 321 C 1171.7333333333331 321 1213.3333333333333 321.8 1213.3333333333333 321.8" stroke="black" stroke-width="5"   stroke-opacity="0.049999999999999996" transform="translate(1, 1)"></path><path fill="none" d="M 34.666666666666664 383.3 C 34.666666666666664 383.3 76.26666666666667 363.9 104 363.9 C 131.73333333333332 363.9 145.6 373.5 173.33333333333331 373.5 C 201.06666666666666 373.5 214.9333333333333 179.6 242.66666666666666 179.6 C 270.4 179.6 284.26666666666665 451.9 312 451.9 C 339.7333333333333 451.9 353.6 401.9 381.3333333333333 399 C 409.0666666666667 396.1 422.9333333333333 399 450.6666666666667 396.1 C 478.4 393.20000000000005 492.2666666666667 239.1 520 239.1 C 547.7333333333333 239.1 561.6 263.4000000000001 589.3333333333333 304.8 C 617.0666666666666 346.2000000000001 630.9333333333333 446.1 658.6666666666666 446.1 C 686.4 446.1 700.2666666666667 427.5 727.9999999999999 427.5 C 755.7333333333332 427.5 769.6 427.5 797.3333333333333 442.7 C 825.0666666666666 457.9 838.9333333333332 523.6 866.6666666666666 523.6 C 894.4 523.6 908.2666666666667 344.3 935.9999999999999 344.3 C 963.7333333333332 344.3 977.6 428.09999999999997 1005.3333333333333 443.9 C 1033.0666666666668 459.7 1046.9333333333332 459.7 1074.6666666666667 459.7 C 1102.4 459.7 1116.2666666666669 321 1144 321 C 1171.7333333333331 321 1213.3333333333333 321.8 1213.3333333333333 321.8" stroke="black" stroke-width="3"   stroke-opacity="0.09999999999999999" transform="translate(1, 1)"></path><path fill="none" d="M 34.666666666666664 383.3 C 34.666666666666664 383.3 76.26666666666667 363.9 104 363.9 C 131.73333333333332 363.9 145.6 373.5 173.33333333333331 373.5 C 201.06666666666666 373.5 214.9333333333333 179.6 242.66666666666666 179.6 C 270.4 179.6 284.26666666666665 451.9 312 451.9 C 339.7333333333333 451.9 353.6 401.9 381.3333333333333 399 C 409.0666666666667 396.1 422.9333333333333 399 450.6666666666667 396.1 C 478.4 393.20000000000005 492.2666666666667 239.1 520 239.1 C 547.7333333333333 239.1 561.6 263.4000000000001 589.3333333333333 304.8 C 617.0666666666666 346.2000000000001 630.9333333333333 446.1 658.6666666666666 446.1 C 686.4 446.1 700.2666666666667 427.5 727.9999999999999 427.5 C 755.7333333333332 427.5 769.6 427.5 797.3333333333333 442.7 C 825.0666666666666 457.9 838.9333333333332 523.6 866.6666666666666 523.6 C 894.4 523.6 908.2666666666667 344.3 935.9999999999999 344.3 C 963.7333333333332 344.3 977.6 428.09999999999997 1005.3333333333333 443.9 C 1033.0666666666668 459.7 1046.9333333333332 459.7 1074.6666666666667 459.7 C 1102.4 459.7 1116.2666666666669 321 1144 321 C 1171.7333333333331 321 1213.3333333333333 321.8 1213.3333333333333 321.8" stroke="black" stroke-width="1"   stroke-opacity="0.15" transform="translate(1, 1)"></path><path fill="none" d="M 34.666666666666664 383.3 C 34.666666666666664 383.3 76.26666666666667 363.9 104 363.9 C 131.73333333333332 363.9 145.6 373.5 173.33333333333331 373.5 C 201.06666666666666 373.5 214.9333333333333 179.6 242.66666666666666 179.6 C 270.4 179.6 284.26666666666665 451.9 312 451.9 C 339.7333333333333 451.9 353.6 401.9 381.3333333333333 399 C 409.0666666666667 396.1 422.9333333333333 399 450.6666666666667 396.1 C 478.4 393.20000000000005 492.2666666666667 239.1 520 239.1 C 547.7333333333333 239.1 561.6 263.4000000000001 589.3333333333333 304.8 C 617.0666666666666 346.2000000000001 630.9333333333333 446.1 658.6666666666666 446.1 C 686.4 446.1 700.2666666666667 427.5 727.9999999999999 427.5 C 755.7333333333332 427.5 769.6 427.5 797.3333333333333 442.7 C 825.0666666666666 457.9 838.9333333333332 523.6 866.6666666666666 523.6 C 894.4 523.6 908.2666666666667 344.3 935.9999999999999 344.3 C 963.7333333333332 344.3 977.6 428.09999999999997 1005.3333333333333 443.9 C 1033.0666666666668 459.7 1046.9333333333332 459.7 1074.6666666666667 459.7 C 1102.4 459.7 1116.2666666666669 321 1144 321 C 1171.7333333333331 321 1213.3333333333333 321.8 1213.3333333333333 321.8" stroke="#33c533" stroke-width="1" ></path></g><g class="highcharts-markers" visibility="visible"  transform="translate(60,50)" clip-path="none"><path fill="#33c533" d="M 1213.3333333333333 317.8 L 1217.3333333333333 321.8 1213.3333333333333 325.8 1209.3333333333333 321.8 Z" stroke="#FFFFFF" stroke-width="0.000001"></path><path fill="#33c533" d="M 1144 317 L 1148 321 1144 325 1140 321 Z" stroke="#FFFFFF" stroke-width="0.000001"></path><path fill="#33c533" d="M 1074.6666666666667 455.7 L 1078.6666666666667 459.7 1074.6666666666667 463.7 1070.6666666666667 459.7 Z" stroke="#FFFFFF" stroke-width="0.000001"></path><path fill="#33c533" d="M 1005.3333333333333 439.9 L 1009.3333333333333 443.9 1005.3333333333333 447.9 1001.3333333333333 443.9 Z" stroke="#FFFFFF" stroke-width="0.000001"></path><path fill="#33c533" d="M 935.9999999999999 340.3 L 939.9999999999999 344.3 935.9999999999999 348.3 931.9999999999999 344.3 Z" stroke="#FFFFFF" stroke-width="0.000001"></path><path fill="#33c533" d="M 866.6666666666666 519.6 L 870.6666666666666 523.6 866.6666666666666 527.6 862.6666666666666 523.6 Z" stroke="#FFFFFF" stroke-width="0.000001"></path><path fill="#33c533" d="M 797.3333333333333 438.7 L 801.3333333333333 442.7 797.3333333333333 446.7 793.3333333333333 442.7 Z" stroke="#FFFFFF" stroke-width="0.000001"></path><path fill="#33c533" d="M 727.9999999999999 423.5 L 731.9999999999999 427.5 727.9999999999999 431.5 723.9999999999999 427.5 Z" stroke="#FFFFFF" stroke-width="0.000001"></path><path fill="#33c533" d="M 658.6666666666666 442.1 L 662.6666666666666 446.1 658.6666666666666 450.1 654.6666666666666 446.1 Z" stroke="#FFFFFF" stroke-width="0.000001"></path><path fill="#33c533" d="M 589.3333333333333 300.8 L 593.3333333333333 304.8 589.3333333333333 308.8 585.3333333333333 304.8 Z" stroke="#FFFFFF" stroke-width="0.000001"></path><path fill="#33c533" d="M 520 235.1 L 524 239.1 520 243.1 516 239.1 Z" stroke="#FFFFFF" stroke-width="0.000001"></path><path fill="#33c533" d="M 450.6666666666667 392.1 L 454.6666666666667 396.1 450.6666666666667 400.1 446.6666666666667 396.1 Z" stroke="#FFFFFF" stroke-width="0.000001"></path><path fill="#33c533" d="M 381.3333333333333 395 L 385.3333333333333 399 381.3333333333333 403 377.3333333333333 399 Z" stroke="#FFFFFF" stroke-width="0.000001"></path><path fill="#33c533" d="M 312 447.9 L 316 451.9 312 455.9 308 451.9 Z" stroke="#FFFFFF" stroke-width="0.000001"></path><path fill="#33c533" d="M 242.66666666666666 175.6 L 246.66666666666666 179.6 242.66666666666666 183.6 238.66666666666666 179.6 Z" stroke="#FFFFFF" stroke-width="0.000001"></path><path fill="#33c533" d="M 173.33333333333331 369.5 L 177.33333333333331 373.5 173.33333333333331 377.5 169.33333333333331 373.5 Z" stroke="#FFFFFF" stroke-width="0.000001"></path><path fill="#33c533" d="M 104 359.9 L 108 363.9 104 367.9 100 363.9 Z" stroke="#FFFFFF" stroke-width="0.000001"></path><path fill="#33c533" d="M 34.666666666666664 379.3 L 38.666666666666664 383.3 34.666666666666664 387.3 30.666666666666664 383.3 Z" stroke="#FFFFFF" stroke-width="0.000001"></path></g><g class="highcharts-series" visibility="visible"  transform="translate(60,50)" clip-path="url(#highcharts-7)"><path fill="none" d="M 34.666666666666664 534.6 C 34.666666666666664 534.6 76.26666666666667 532.8599999999999 104 521.8 C 131.73333333333332 510.74 145.6 502.7 173.33333333333331 479.3 C 201.06666666666666 455.9 214.9333333333333 404.8 242.66666666666666 404.8 C 270.4 404.8 284.26666666666665 518.5 312 518.5 C 339.7333333333333 518.5 353.6 476.6599999999999 381.3333333333333 457.9 C 409.0666666666667 439.13999999999993 422.9333333333333 424.7 450.6666666666667 424.7 C 478.4 424.7 492.2666666666667 533.1 520 533.1 C 547.7333333333333 533.1 561.6 420.2 589.3333333333333 420.2 C 617.0666666666666 420.2 630.9333333333333 434.6 658.6666666666666 434.6 C 686.4 434.6 700.2666666666667 424.1 727.9999999999999 424.1 C 755.7333333333332 424.1 769.6 477 797.3333333333333 483.3 C 825.0666666666666 489.6 838.9333333333332 489.6 866.6666666666666 489.6 C 894.4 489.6 908.2666666666667 344.3 935.9999999999999 344.3 C 963.7333333333332 344.3 977.6 364.22000000000014 1005.3333333333333 384.3 C 1033.0666666666668 404.38000000000017 1046.9333333333332 432.2 1074.6666666666667 444.7 C 1102.4 457.2 1116.2666666666669 457.2 1144 457.2 C 1171.7333333333331 457.2 1213.3333333333333 434.6 1213.3333333333333 434.6" stroke="black" stroke-width="5"   stroke-opacity="0.049999999999999996" transform="translate(1, 1)"></path><path fill="none" d="M 34.666666666666664 534.6 C 34.666666666666664 534.6 76.26666666666667 532.8599999999999 104 521.8 C 131.73333333333332 510.74 145.6 502.7 173.33333333333331 479.3 C 201.06666666666666 455.9 214.9333333333333 404.8 242.66666666666666 404.8 C 270.4 404.8 284.26666666666665 518.5 312 518.5 C 339.7333333333333 518.5 353.6 476.6599999999999 381.3333333333333 457.9 C 409.0666666666667 439.13999999999993 422.9333333333333 424.7 450.6666666666667 424.7 C 478.4 424.7 492.2666666666667 533.1 520 533.1 C 547.7333333333333 533.1 561.6 420.2 589.3333333333333 420.2 C 617.0666666666666 420.2 630.9333333333333 434.6 658.6666666666666 434.6 C 686.4 434.6 700.2666666666667 424.1 727.9999999999999 424.1 C 755.7333333333332 424.1 769.6 477 797.3333333333333 483.3 C 825.0666666666666 489.6 838.9333333333332 489.6 866.6666666666666 489.6 C 894.4 489.6 908.2666666666667 344.3 935.9999999999999 344.3 C 963.7333333333332 344.3 977.6 364.22000000000014 1005.3333333333333 384.3 C 1033.0666666666668 404.38000000000017 1046.9333333333332 432.2 1074.6666666666667 444.7 C 1102.4 457.2 1116.2666666666669 457.2 1144 457.2 C 1171.7333333333331 457.2 1213.3333333333333 434.6 1213.3333333333333 434.6" stroke="black" stroke-width="3"   stroke-opacity="0.09999999999999999" transform="translate(1, 1)"></path><path fill="none" d="M 34.666666666666664 534.6 C 34.666666666666664 534.6 76.26666666666667 532.8599999999999 104 521.8 C 131.73333333333332 510.74 145.6 502.7 173.33333333333331 479.3 C 201.06666666666666 455.9 214.9333333333333 404.8 242.66666666666666 404.8 C 270.4 404.8 284.26666666666665 518.5 312 518.5 C 339.7333333333333 518.5 353.6 476.6599999999999 381.3333333333333 457.9 C 409.0666666666667 439.13999999999993 422.9333333333333 424.7 450.6666666666667 424.7 C 478.4 424.7 492.2666666666667 533.1 520 533.1 C 547.7333333333333 533.1 561.6 420.2 589.3333333333333 420.2 C 617.0666666666666 420.2 630.9333333333333 434.6 658.6666666666666 434.6 C 686.4 434.6 700.2666666666667 424.1 727.9999999999999 424.1 C 755.7333333333332 424.1 769.6 477 797.3333333333333 483.3 C 825.0666666666666 489.6 838.9333333333332 489.6 866.6666666666666 489.6 C 894.4 489.6 908.2666666666667 344.3 935.9999999999999 344.3 C 963.7333333333332 344.3 977.6 364.22000000000014 1005.3333333333333 384.3 C 1033.0666666666668 404.38000000000017 1046.9333333333332 432.2 1074.6666666666667 444.7 C 1102.4 457.2 1116.2666666666669 457.2 1144 457.2 C 1171.7333333333331 457.2 1213.3333333333333 434.6 1213.3333333333333 434.6" stroke="black" stroke-width="1"   stroke-opacity="0.15" transform="translate(1, 1)"></path><path fill="none" d="M 34.666666666666664 534.6 C 34.666666666666664 534.6 76.26666666666667 532.8599999999999 104 521.8 C 131.73333333333332 510.74 145.6 502.7 173.33333333333331 479.3 C 201.06666666666666 455.9 214.9333333333333 404.8 242.66666666666666 404.8 C 270.4 404.8 284.26666666666665 518.5 312 518.5 C 339.7333333333333 518.5 353.6 476.6599999999999 381.3333333333333 457.9 C 409.0666666666667 439.13999999999993 422.9333333333333 424.7 450.6666666666667 424.7 C 478.4 424.7 492.2666666666667 533.1 520 533.1 C 547.7333333333333 533.1 561.6 420.2 589.3333333333333 420.2 C 617.0666666666666 420.2 630.9333333333333 434.6 658.6666666666666 434.6 C 686.4 434.6 700.2666666666667 424.1 727.9999999999999 424.1 C 755.7333333333332 424.1 769.6 477 797.3333333333333 483.3 C 825.0666666666666 489.6 838.9333333333332 489.6 866.6666666666666 489.6 C 894.4 489.6 908.2666666666667 344.3 935.9999999999999 344.3 C 963.7333333333332 344.3 977.6 364.22000000000014 1005.3333333333333 384.3 C 1033.0666666666668 404.38000000000017 1046.9333333333332 432.2 1074.6666666666667 444.7 C 1102.4 457.2 1116.2666666666669 457.2 1144 457.2 C 1171.7333333333331 457.2 1213.3333333333333 434.6 1213.3333333333333 434.6" stroke="#ff00ff" stroke-width="1" ></path></g><g class="highcharts-markers" visibility="visible"  transform="translate(60,50)" clip-path="none"><path fill="#ff00ff" d="M 1209.3333333333333 430.6 L 1217.3333333333333 430.6 1217.3333333333333 438.6 1209.3333333333333 438.6 Z" stroke="#FFFFFF" stroke-width="0.000001"></path><path fill="#ff00ff" d="M 1140 453.2 L 1148 453.2 1148 461.2 1140 461.2 Z" stroke="#FFFFFF" stroke-width="0.000001"></path><path fill="#ff00ff" d="M 1070.6666666666667 440.7 L 1078.6666666666667 440.7 1078.6666666666667 448.7 1070.6666666666667 448.7 Z" stroke="#FFFFFF" stroke-width="0.000001"></path><path fill="#ff00ff" d="M 1001.3333333333333 380.3 L 1009.3333333333333 380.3 1009.3333333333333 388.3 1001.3333333333333 388.3 Z" stroke="#FFFFFF" stroke-width="0.000001"></path><path fill="#ff00ff" d="M 931.9999999999999 340.3 L 939.9999999999999 340.3 939.9999999999999 348.3 931.9999999999999 348.3 Z" stroke="#FFFFFF" stroke-width="0.000001"></path><path fill="#ff00ff" d="M 862.6666666666666 485.6 L 870.6666666666666 485.6 870.6666666666666 493.6 862.6666666666666 493.6 Z" stroke="#FFFFFF" stroke-width="0.000001"></path><path fill="#ff00ff" d="M 793.3333333333333 479.3 L 801.3333333333333 479.3 801.3333333333333 487.3 793.3333333333333 487.3 Z" stroke="#FFFFFF" stroke-width="0.000001"></path><path fill="#ff00ff" d="M 723.9999999999999 420.1 L 731.9999999999999 420.1 731.9999999999999 428.1 723.9999999999999 428.1 Z" stroke="#FFFFFF" stroke-width="0.000001"></path><path fill="#ff00ff" d="M 654.6666666666666 430.6 L 662.6666666666666 430.6 662.6666666666666 438.6 654.6666666666666 438.6 Z" stroke="#FFFFFF" stroke-width="0.000001"></path><path fill="#ff00ff" d="M 585.3333333333333 416.2 L 593.3333333333333 416.2 593.3333333333333 424.2 585.3333333333333 424.2 Z" stroke="#FFFFFF" stroke-width="0.000001"></path><path fill="#ff00ff" d="M 516 529.1 L 524 529.1 524 537.1 516 537.1 Z" stroke="#FFFFFF" stroke-width="0.000001"></path><path fill="#ff00ff" d="M 446.6666666666667 420.7 L 454.6666666666667 420.7 454.6666666666667 428.7 446.6666666666667 428.7 Z" stroke="#FFFFFF" stroke-width="0.000001"></path><path fill="#ff00ff" d="M 377.3333333333333 453.9 L 385.3333333333333 453.9 385.3333333333333 461.9 377.3333333333333 461.9 Z" stroke="#FFFFFF" stroke-width="0.000001"></path><path fill="#ff00ff" d="M 308 514.5 L 316 514.5 316 522.5 308 522.5 Z" stroke="#FFFFFF" stroke-width="0.000001"></path><path fill="#ff00ff" d="M 238.66666666666666 400.8 L 246.66666666666666 400.8 246.66666666666666 408.8 238.66666666666666 408.8 Z" stroke="#FFFFFF" stroke-width="0.000001"></path><path fill="#ff00ff" d="M 169.33333333333331 475.3 L 177.33333333333331 475.3 177.33333333333331 483.3 169.33333333333331 483.3 Z" stroke="#FFFFFF" stroke-width="0.000001"></path><path fill="#ff00ff" d="M 100 517.8 L 108 517.8 108 525.8 100 525.8 Z" stroke="#FFFFFF" stroke-width="0.000001"></path><path fill="#ff00ff" d="M 30.666666666666664 530.6 L 38.666666666666664 530.6 38.666666666666664 538.6 30.666666666666664 538.6 Z" stroke="#FFFFFF" stroke-width="0.000001"></path></g><g class="highcharts-series" visibility="visible"  transform="translate(60,50)" clip-path="url(#highcharts-7)"><path fill="none" d="M 34.666666666666664 257.2 C 34.666666666666664 257.2 76.26666666666667 209.9 104 209.9 C 131.73333333333332 209.9 145.6 358.40000000000003 173.33333333333331 359.1 C 201.06666666666666 359.8 214.9333333333333 359.8 242.66666666666666 359.8 C 270.4 359.8 284.26666666666665 352.1 312 352.1 C 339.7333333333333 352.1 353.6 471.1 381.3333333333333 471.1 C 409.0666666666667 471.1 422.9333333333333 466.72000000000014 450.6666666666667 396.1 C 478.4 325.48000000000013 492.2666666666667 118 520 118 C 547.7333333333333 118 561.6 398.80000000000007 589.3333333333333 469.6 C 617.0666666666666 540.4 630.9333333333333 540.4 658.6666666666666 540.4 C 686.4 540.4 700.2666666666667 540.4 727.9999999999999 522 C 755.7333333333332 503.6 769.6 341 797.3333333333333 341 C 825.0666666666666 341 838.9333333333332 380.5 866.6666666666666 380.5 C 894.4 380.5 908.2666666666667 183.8 935.9999999999999 183.8 C 963.7333333333332 183.8 977.6 444.19999999999993 1005.3333333333333 486.9 C 1033.0666666666668 529.6 1046.9333333333332 529.6 1074.6666666666667 529.6 C 1102.4 529.6 1116.2666666666669 501.38 1144 471.1 C 1171.7333333333331 440.82000000000005 1213.3333333333333 378.2 1213.3333333333333 378.2" stroke="black" stroke-width="5"   stroke-opacity="0.049999999999999996" transform="translate(1, 1)"></path><path fill="none" d="M 34.666666666666664 257.2 C 34.666666666666664 257.2 76.26666666666667 209.9 104 209.9 C 131.73333333333332 209.9 145.6 358.40000000000003 173.33333333333331 359.1 C 201.06666666666666 359.8 214.9333333333333 359.8 242.66666666666666 359.8 C 270.4 359.8 284.26666666666665 352.1 312 352.1 C 339.7333333333333 352.1 353.6 471.1 381.3333333333333 471.1 C 409.0666666666667 471.1 422.9333333333333 466.72000000000014 450.6666666666667 396.1 C 478.4 325.48000000000013 492.2666666666667 118 520 118 C 547.7333333333333 118 561.6 398.80000000000007 589.3333333333333 469.6 C 617.0666666666666 540.4 630.9333333333333 540.4 658.6666666666666 540.4 C 686.4 540.4 700.2666666666667 540.4 727.9999999999999 522 C 755.7333333333332 503.6 769.6 341 797.3333333333333 341 C 825.0666666666666 341 838.9333333333332 380.5 866.6666666666666 380.5 C 894.4 380.5 908.2666666666667 183.8 935.9999999999999 183.8 C 963.7333333333332 183.8 977.6 444.19999999999993 1005.3333333333333 486.9 C 1033.0666666666668 529.6 1046.9333333333332 529.6 1074.6666666666667 529.6 C 1102.4 529.6 1116.2666666666669 501.38 1144 471.1 C 1171.7333333333331 440.82000000000005 1213.3333333333333 378.2 1213.3333333333333 378.2" stroke="black" stroke-width="3"   stroke-opacity="0.09999999999999999" transform="translate(1, 1)"></path><path fill="none" d="M 34.666666666666664 257.2 C 34.666666666666664 257.2 76.26666666666667 209.9 104 209.9 C 131.73333333333332 209.9 145.6 358.40000000000003 173.33333333333331 359.1 C 201.06666666666666 359.8 214.9333333333333 359.8 242.66666666666666 359.8 C 270.4 359.8 284.26666666666665 352.1 312 352.1 C 339.7333333333333 352.1 353.6 471.1 381.3333333333333 471.1 C 409.0666666666667 471.1 422.9333333333333 466.72000000000014 450.6666666666667 396.1 C 478.4 325.48000000000013 492.2666666666667 118 520 118 C 547.7333333333333 118 561.6 398.80000000000007 589.3333333333333 469.6 C 617.0666666666666 540.4 630.9333333333333 540.4 658.6666666666666 540.4 C 686.4 540.4 700.2666666666667 540.4 727.9999999999999 522 C 755.7333333333332 503.6 769.6 341 797.3333333333333 341 C 825.0666666666666 341 838.9333333333332 380.5 866.6666666666666 380.5 C 894.4 380.5 908.2666666666667 183.8 935.9999999999999 183.8 C 963.7333333333332 183.8 977.6 444.19999999999993 1005.3333333333333 486.9 C 1033.0666666666668 529.6 1046.9333333333332 529.6 1074.6666666666667 529.6 C 1102.4 529.6 1116.2666666666669 501.38 1144 471.1 C 1171.7333333333331 440.82000000000005 1213.3333333333333 378.2 1213.3333333333333 378.2" stroke="black" stroke-width="1"   stroke-opacity="0.15" transform="translate(1, 1)"></path><path fill="none" d="M 34.666666666666664 257.2 C 34.666666666666664 257.2 76.26666666666667 209.9 104 209.9 C 131.73333333333332 209.9 145.6 358.40000000000003 173.33333333333331 359.1 C 201.06666666666666 359.8 214.9333333333333 359.8 242.66666666666666 359.8 C 270.4 359.8 284.26666666666665 352.1 312 352.1 C 339.7333333333333 352.1 353.6 471.1 381.3333333333333 471.1 C 409.0666666666667 471.1 422.9333333333333 466.72000000000014 450.6666666666667 396.1 C 478.4 325.48000000000013 492.2666666666667 118 520 118 C 547.7333333333333 118 561.6 398.80000000000007 589.3333333333333 469.6 C 617.0666666666666 540.4 630.9333333333333 540.4 658.6666666666666 540.4 C 686.4 540.4 700.2666666666667 540.4 727.9999999999999 522 C 755.7333333333332 503.6 769.6 341 797.3333333333333 341 C 825.0666666666666 341 838.9333333333332 380.5 866.6666666666666 380.5 C 894.4 380.5 908.2666666666667 183.8 935.9999999999999 183.8 C 963.7333333333332 183.8 977.6 444.19999999999993 1005.3333333333333 486.9 C 1033.0666666666668 529.6 1046.9333333333332 529.6 1074.6666666666667 529.6 C 1102.4 529.6 1116.2666666666669 501.38 1144 471.1 C 1171.7333333333331 440.82000000000005 1213.3333333333333 378.2 1213.3333333333333 378.2" stroke="#7933ff" stroke-width="1" ></path></g><g class="highcharts-markers" visibility="visible"  transform="translate(60,50)" clip-path="none"><path fill="#7933ff" d="M 1213.3333333333333 374.2 L 1217.3333333333333 382.2 1209.3333333333333 382.2 Z" stroke="#FFFFFF" stroke-width="0.000001"></path><path fill="#7933ff" d="M 1144 467.1 L 1148 475.1 1140 475.1 Z" stroke="#FFFFFF" stroke-width="0.000001"></path><path fill="#7933ff" d="M 1074.6666666666667 525.6 L 1078.6666666666667 533.6 1070.6666666666667 533.6 Z" stroke="#FFFFFF" stroke-width="0.000001"></path><path fill="#7933ff" d="M 1005.3333333333333 482.9 L 1009.3333333333333 490.9 1001.3333333333333 490.9 Z" stroke="#FFFFFF" stroke-width="0.000001"></path><path fill="#7933ff" d="M 935.9999999999999 179.8 L 939.9999999999999 187.8 931.9999999999999 187.8 Z" stroke="#FFFFFF" stroke-width="0.000001"></path><path fill="#7933ff" d="M 866.6666666666666 376.5 L 870.6666666666666 384.5 862.6666666666666 384.5 Z" stroke="#FFFFFF" stroke-width="0.000001"></path><path fill="#7933ff" d="M 797.3333333333333 337 L 801.3333333333333 345 793.3333333333333 345 Z" stroke="#FFFFFF" stroke-width="0.000001"></path><path fill="#7933ff" d="M 727.9999999999999 518 L 731.9999999999999 526 723.9999999999999 526 Z" stroke="#FFFFFF" stroke-width="0.000001"></path><path fill="#7933ff" d="M 658.6666666666666 536.4 L 662.6666666666666 544.4 654.6666666666666 544.4 Z" stroke="#FFFFFF" stroke-width="0.000001"></path><path fill="#7933ff" d="M 589.3333333333333 465.6 L 593.3333333333333 473.6 585.3333333333333 473.6 Z" stroke="#FFFFFF" stroke-width="0.000001"></path><path fill="#7933ff" d="M 520 114 L 524 122 516 122 Z" stroke="#FFFFFF" stroke-width="0.000001"></path><path fill="#7933ff" d="M 450.6666666666667 392.1 L 454.6666666666667 400.1 446.6666666666667 400.1 Z" stroke="#FFFFFF" stroke-width="0.000001"></path><path fill="#7933ff" d="M 381.3333333333333 467.1 L 385.3333333333333 475.1 377.3333333333333 475.1 Z" stroke="#FFFFFF" stroke-width="0.000001"></path><path fill="#7933ff" d="M 312 348.1 L 316 356.1 308 356.1 Z" stroke="#FFFFFF" stroke-width="0.000001"></path><path fill="#7933ff" d="M 242.66666666666666 355.8 L 246.66666666666666 363.8 238.66666666666666 363.8 Z" stroke="#FFFFFF" stroke-width="0.000001"></path><path fill="#7933ff" d="M 173.33333333333331 355.1 L 177.33333333333331 363.1 169.33333333333331 363.1 Z" stroke="#FFFFFF" stroke-width="0.000001"></path><path fill="#7933ff" d="M 104 205.9 L 108 213.9 100 213.9 Z" stroke="#FFFFFF" stroke-width="0.000001"></path><path fill="#7933ff" d="M 34.666666666666664 253.2 L 38.666666666666664 261.2 30.666666666666664 261.2 Z" stroke="#FFFFFF" stroke-width="0.000001"></path></g><g class="highcharts-series" visibility="visible"  transform="translate(60,50)" clip-path="url(#highcharts-7)"><path fill="none" d="M 34.666666666666664 408.5 C 34.666666666666664 408.5 76.26666666666667 521.0999999999999 104 521.8 C 131.73333333333332 522.5 145.6 521.8 173.33333333333331 522.5 C 201.06666666666666 523.2 214.9333333333333 585 242.66666666666666 585 C 270.4 585 284.26666666666665 585 312 585 C 339.7333333333333 585 353.6 552.7 381.3333333333333 552.7 C 409.0666666666667 552.7 422.9333333333333 567.14 450.6666666666667 573.6 C 478.4 580.0600000000001 492.2666666666667 585 520 585 C 547.7333333333333 585 561.6 420.2 589.3333333333333 420.2 C 617.0666666666666 420.2 630.9333333333333 463.09999999999997 658.6666666666666 480.9 C 686.4 498.69999999999993 700.2666666666667 492.44 727.9999999999999 509.2 C 755.7333333333332 525.96 769.6 558.0000000000001 797.3333333333333 564.7 C 825.0666666666666 571.4 838.9333333333332 571.4 866.6666666666666 571.4 C 894.4 571.4 908.2666666666667 404.4 935.9999999999999 404.4 C 963.7333333333332 404.4 977.6 450.78000000000014 1005.3333333333333 467 C 1033.0666666666668 483.2200000000001 1046.9333333333332 485.5 1074.6666666666667 485.5 C 1102.4 485.5 1116.2666666666669 387.7 1144 387.7 C 1171.7333333333331 387.7 1213.3333333333333 547.4 1213.3333333333333 547.4" stroke="black" stroke-width="5"   stroke-opacity="0.049999999999999996" transform="translate(1, 1)"></path><path fill="none" d="M 34.666666666666664 408.5 C 34.666666666666664 408.5 76.26666666666667 521.0999999999999 104 521.8 C 131.73333333333332 522.5 145.6 521.8 173.33333333333331 522.5 C 201.06666666666666 523.2 214.9333333333333 585 242.66666666666666 585 C 270.4 585 284.26666666666665 585 312 585 C 339.7333333333333 585 353.6 552.7 381.3333333333333 552.7 C 409.0666666666667 552.7 422.9333333333333 567.14 450.6666666666667 573.6 C 478.4 580.0600000000001 492.2666666666667 585 520 585 C 547.7333333333333 585 561.6 420.2 589.3333333333333 420.2 C 617.0666666666666 420.2 630.9333333333333 463.09999999999997 658.6666666666666 480.9 C 686.4 498.69999999999993 700.2666666666667 492.44 727.9999999999999 509.2 C 755.7333333333332 525.96 769.6 558.0000000000001 797.3333333333333 564.7 C 825.0666666666666 571.4 838.9333333333332 571.4 866.6666666666666 571.4 C 894.4 571.4 908.2666666666667 404.4 935.9999999999999 404.4 C 963.7333333333332 404.4 977.6 450.78000000000014 1005.3333333333333 467 C 1033.0666666666668 483.2200000000001 1046.9333333333332 485.5 1074.6666666666667 485.5 C 1102.4 485.5 1116.2666666666669 387.7 1144 387.7 C 1171.7333333333331 387.7 1213.3333333333333 547.4 1213.3333333333333 547.4" stroke="black" stroke-width="3"   stroke-opacity="0.09999999999999999" transform="translate(1, 1)"></path><path fill="none" d="M 34.666666666666664 408.5 C 34.666666666666664 408.5 76.26666666666667 521.0999999999999 104 521.8 C 131.73333333333332 522.5 145.6 521.8 173.33333333333331 522.5 C 201.06666666666666 523.2 214.9333333333333 585 242.66666666666666 585 C 270.4 585 284.26666666666665 585 312 585 C 339.7333333333333 585 353.6 552.7 381.3333333333333 552.7 C 409.0666666666667 552.7 422.9333333333333 567.14 450.6666666666667 573.6 C 478.4 580.0600000000001 492.2666666666667 585 520 585 C 547.7333333333333 585 561.6 420.2 589.3333333333333 420.2 C 617.0666666666666 420.2 630.9333333333333 463.09999999999997 658.6666666666666 480.9 C 686.4 498.69999999999993 700.2666666666667 492.44 727.9999999999999 509.2 C 755.7333333333332 525.96 769.6 558.0000000000001 797.3333333333333 564.7 C 825.0666666666666 571.4 838.9333333333332 571.4 866.6666666666666 571.4 C 894.4 571.4 908.2666666666667 404.4 935.9999999999999 404.4 C 963.7333333333332 404.4 977.6 450.78000000000014 1005.3333333333333 467 C 1033.0666666666668 483.2200000000001 1046.9333333333332 485.5 1074.6666666666667 485.5 C 1102.4 485.5 1116.2666666666669 387.7 1144 387.7 C 1171.7333333333331 387.7 1213.3333333333333 547.4 1213.3333333333333 547.4" stroke="black" stroke-width="1"   stroke-opacity="0.15" transform="translate(1, 1)"></path><path fill="none" d="M 34.666666666666664 408.5 C 34.666666666666664 408.5 76.26666666666667 521.0999999999999 104 521.8 C 131.73333333333332 522.5 145.6 521.8 173.33333333333331 522.5 C 201.06666666666666 523.2 214.9333333333333 585 242.66666666666666 585 C 270.4 585 284.26666666666665 585 312 585 C 339.7333333333333 585 353.6 552.7 381.3333333333333 552.7 C 409.0666666666667 552.7 422.9333333333333 567.14 450.6666666666667 573.6 C 478.4 580.0600000000001 492.2666666666667 585 520 585 C 547.7333333333333 585 561.6 420.2 589.3333333333333 420.2 C 617.0666666666666 420.2 630.9333333333333 463.09999999999997 658.6666666666666 480.9 C 686.4 498.69999999999993 700.2666666666667 492.44 727.9999999999999 509.2 C 755.7333333333332 525.96 769.6 558.0000000000001 797.3333333333333 564.7 C 825.0666666666666 571.4 838.9333333333332 571.4 866.6666666666666 571.4 C 894.4 571.4 908.2666666666667 404.4 935.9999999999999 404.4 C 963.7333333333332 404.4 977.6 450.78000000000014 1005.3333333333333 467 C 1033.0666666666668 483.2200000000001 1046.9333333333332 485.5 1074.6666666666667 485.5 C 1102.4 485.5 1116.2666666666669 387.7 1144 387.7 C 1171.7333333333331 387.7 1213.3333333333333 547.4 1213.3333333333333 547.4" stroke="#1cffff" stroke-width="1" ></path></g><g class="highcharts-markers" visibility="visible"  transform="translate(60,50)" clip-path="none"><path fill="#1cffff" d="M 1209.3333333333333 543.4 L 1217.3333333333333 543.4 1213.3333333333333 551.4 Z" stroke="#FFFFFF" stroke-width="0.000001"></path><path fill="#1cffff" d="M 1140 383.7 L 1148 383.7 1144 391.7 Z" stroke="#FFFFFF" stroke-width="0.000001"></path><path fill="#1cffff" d="M 1070.6666666666667 481.5 L 1078.6666666666667 481.5 1074.6666666666667 489.5 Z" stroke="#FFFFFF" stroke-width="0.000001"></path><path fill="#1cffff" d="M 1001.3333333333333 463 L 1009.3333333333333 463 1005.3333333333333 471 Z" stroke="#FFFFFF" stroke-width="0.000001"></path><path fill="#1cffff" d="M 931.9999999999999 400.4 L 939.9999999999999 400.4 935.9999999999999 408.4 Z" stroke="#FFFFFF" stroke-width="0.000001"></path><path fill="#1cffff" d="M 862.6666666666666 567.4 L 870.6666666666666 567.4 866.6666666666666 575.4 Z" stroke="#FFFFFF" stroke-width="0.000001"></path><path fill="#1cffff" d="M 793.3333333333333 560.7 L 801.3333333333333 560.7 797.3333333333333 568.7 Z" stroke="#FFFFFF" stroke-width="0.000001"></path><path fill="#1cffff" d="M 723.9999999999999 505.2 L 731.9999999999999 505.2 727.9999999999999 513.2 Z" stroke="#FFFFFF" stroke-width="0.000001"></path><path fill="#1cffff" d="M 654.6666666666666 476.9 L 662.6666666666666 476.9 658.6666666666666 484.9 Z" stroke="#FFFFFF" stroke-width="0.000001"></path><path fill="#1cffff" d="M 585.3333333333333 416.2 L 593.3333333333333 416.2 589.3333333333333 424.2 Z" stroke="#FFFFFF" stroke-width="0.000001"></path><path fill="#1cffff" d="M 516 581 L 524 581 520 589 Z" stroke="#FFFFFF" stroke-width="0.000001"></path><path fill="#1cffff" d="M 446.6666666666667 569.6 L 454.6666666666667 569.6 450.6666666666667 577.6 Z" stroke="#FFFFFF" stroke-width="0.000001"></path><path fill="#1cffff" d="M 377.3333333333333 548.7 L 385.3333333333333 548.7 381.3333333333333 556.7 Z" stroke="#FFFFFF" stroke-width="0.000001"></path><path fill="#1cffff" d="M 308 581 L 316 581 312 589 Z" stroke="#FFFFFF" stroke-width="0.000001"></path><path fill="#1cffff" d="M 238.66666666666666 581 L 246.66666666666666 581 242.66666666666666 589 Z" stroke="#FFFFFF" stroke-width="0.000001"></path><path fill="#1cffff" d="M 169.33333333333331 518.5 L 177.33333333333331 518.5 173.33333333333331 526.5 Z" stroke="#FFFFFF" stroke-width="0.000001"></path><path fill="#1cffff" d="M 100 517.8 L 108 517.8 104 525.8 Z" stroke="#FFFFFF" stroke-width="0.000001"></path><path fill="#1cffff" d="M 30.666666666666664 404.5 L 38.666666666666664 404.5 34.666666666666664 412.5 Z" stroke="#FFFFFF" stroke-width="0.000001"></path></g></g><g class="highcharts-legend"  transform="translate(507,20)"><rect rx="5" ry="5" fill="none" x="0.5" y="0.5" width="312" height="24" stroke-width="1" stroke="#909090" visibility="visible"></rect><g  clip-path="url(#highcharts-6)"><g><g class="highcharts-legend-item"  transform="translate(8,3)"><path fill="none" d="M 0 11 L 10 11" stroke-width="1" stroke="#0000ff"></path><path fill="#0000ff" d="M 5 7 C 10.328 7 10.328 15 5 15 C -0.32800000000000007 15 -0.32800000000000007 7 5 7 Z" stroke="#FFFFFF" stroke-width="0.000001"></path><text x="13" y="15" style="font-family:'lucida grande', 'lucida sans unicode', verdana, arial, helvetica, sans-serif;font-size:12px;cursor:pointer;color:#3e576f;fill:#3e576f;" text-anchor="start" ><tspan x="13">france</tspan></text></g><g class="highcharts-legend-item"  transform="translate(65.234375,3)"><path fill="none" d="M 0 11 L 10 11" stroke-width="1" stroke="#33c533"></path><path fill="#33c533" d="M 5 7 L 9 11 5 15 1 11 Z" stroke="#FFFFFF" stroke-width="0.000001"></path><text x="13" y="15" style="font-family:'lucida grande', 'lucida sans unicode', verdana, arial, helvetica, sans-serif;font-size:12px;cursor:pointer;color:#3e576f;fill:#3e576f;" text-anchor="start" ><tspan x="13">politique</tspan></text></g><g class="highcharts-legend-item"  transform="translate(137.75,3)"><path fill="none" d="M 0 11 L 10 11" stroke-width="1" stroke="#ff00ff"></path><path fill="#ff00ff" d="M 1 7 L 9 7 9 15 1 15 Z" stroke="#FFFFFF" stroke-width="0.000001"></path><text x="13" y="15" style="font-family:'lucida grande', 'lucida sans unicode', verdana, arial, helvetica, sans-serif;font-size:12px;cursor:pointer;color:#3e576f;fill:#3e576f;" text-anchor="start" ><tspan x="13">pays</tspan></text></g><g class="highcharts-legend-item"  transform="translate(185.328125,3)"><path fill="none" d="M 0 11 L 10 11" stroke-width="1" stroke="#7933ff"></path><path fill="#7933ff" d="M 5 7 L 9 15 1 15 Z" stroke="#FFFFFF" stroke-width="0.000001"></path><text x="13" y="15" style="font-family:'lucida grande', 'lucida sans unicode', verdana, arial, helvetica, sans-serif;font-size:12px;cursor:pointer;color:#3e576f;fill:#3e576f;" text-anchor="start" ><tspan x="13">national</tspan></text></g><g class="highcharts-legend-item"  transform="translate(253.28125,3)"><path fill="none" d="M 0 11 L 10 11" stroke-width="1" stroke="#1cffff"></path><path fill="#1cffff" d="M 1 7 L 9 7 5 15 Z" stroke="#FFFFFF" stroke-width="0.000001"></path><text x="13" y="15" style="font-family:'lucida grande', 'lucida sans unicode', verdana, arial, helvetica, sans-serif;font-size:12px;cursor:pointer;color:#3e576f;fill:#3e576f;" text-anchor="start" ><tspan x="13">peuple</tspan></text></g></g></g></g><g class="highcharts-axis-labels" ><text x="94.66666666666666" y="649" style="font-family:'lucida grande', 'lucida sans unicode', verdana, arial, helvetica, sans-serif;font-size:11px;color:#666;line-height:14px;fill:#666;" text-anchor="end" transform="rotate(315 94.66666666666666 649)"><tspan x="94.66666666666666">1) 1997</tspan></text><text x="164" y="649" style="font-family:'lucida grande', 'lucida sans unicode', verdana, arial, helvetica, sans-serif;font-size:11px;color:#666;line-height:14px;fill:#666;" text-anchor="end" transform="rotate(315 164 649)"><tspan x="164">2) 1998</tspan></text><text x="233.33333333333334" y="649" style="font-family:'lucida grande', 'lucida sans unicode', verdana, arial, helvetica, sans-serif;font-size:11px;color:#666;line-height:14px;fill:#666;" text-anchor="end" transform="rotate(315 233.33333333333334 649)"><tspan x="233.33333333333334">3) 1999</tspan></text><text x="302.66666666666663" y="649" style="font-family:'lucida grande', 'lucida sans unicode', verdana, arial, helvetica, sans-serif;font-size:11px;color:#666;line-height:14px;fill:#666;" text-anchor="end" transform="rotate(315 302.66666666666663 649)"><tspan x="302.66666666666663">4) 2000</tspan></text><text x="372" y="649" style="font-family:'lucida grande', 'lucida sans unicode', verdana, arial, helvetica, sans-serif;font-size:11px;color:#666;line-height:14px;fill:#666;" text-anchor="end" transform="rotate(315 372 649)"><tspan x="372">5) 2001</tspan></text><text x="441.3333333333333" y="649" style="font-family:'lucida grande', 'lucida sans unicode', verdana, arial, helvetica, sans-serif;font-size:11px;color:#666;line-height:14px;fill:#666;" text-anchor="end" transform="rotate(315 441.3333333333333 649)"><tspan x="441.3333333333333">6) 2002</tspan></text><text x="510.6666666666666" y="649" style="font-family:'lucida grande', 'lucida sans unicode', verdana, arial, helvetica, sans-serif;font-size:11px;color:#666;line-height:14px;fill:#666;" text-anchor="end" transform="rotate(315 510.6666666666666 649)"><tspan x="510.6666666666666">7) 2003</tspan></text><text x="580" y="649" style="font-family:'lucida grande', 'lucida sans unicode', verdana, arial, helvetica, sans-serif;font-size:11px;color:#666;line-height:14px;fill:#666;" text-anchor="end" transform="rotate(315 580 649)"><tspan x="580">8) 2004</tspan></text><text x="649.3333333333333" y="649" style="font-family:'lucida grande', 'lucida sans unicode', verdana, arial, helvetica, sans-serif;font-size:11px;color:#666;line-height:14px;fill:#666;" text-anchor="end" transform="rotate(315 649.3333333333333 649)"><tspan x="649.3333333333333">9) 2005</tspan></text><text x="718.6666666666666" y="649" style="font-family:'lucida grande', 'lucida sans unicode', verdana, arial, helvetica, sans-serif;font-size:11px;color:#666;line-height:14px;fill:#666;" text-anchor="end" transform="rotate(315 718.6666666666666 649)"><tspan x="718.6666666666666">10) 2006</tspan></text><text x="788" y="649" style="font-family:'lucida grande', 'lucida sans unicode', verdana, arial, helvetica, sans-serif;font-size:11px;color:#666;line-height:14px;fill:#666;" text-anchor="end" transform="rotate(315 788 649)"><tspan x="788">11) 2007</tspan></text><text x="857.3333333333333" y="649" style="font-family:'lucida grande', 'lucida sans unicode', verdana, arial, helvetica, sans-serif;font-size:11px;color:#666;line-height:14px;fill:#666;" text-anchor="end" transform="rotate(315 857.3333333333333 649)"><tspan x="857.3333333333333">12) 2008</tspan></text><text x="926.6666666666666" y="649" style="font-family:'lucida grande', 'lucida sans unicode', verdana, arial, helvetica, sans-serif;font-size:11px;color:#666;line-height:14px;fill:#666;" text-anchor="end" transform="rotate(315 926.6666666666666 649)"><tspan x="926.6666666666666">13) 2009</tspan></text><text x="995.9999999999999" y="649" style="font-family:'lucida grande', 'lucida sans unicode', verdana, arial, helvetica, sans-serif;font-size:11px;color:#666;line-height:14px;fill:#666;" text-anchor="end" transform="rotate(315 995.9999999999999 649)"><tspan x="995.9999999999999">14) 2010</tspan></text><text x="1065.3333333333333" y="649" style="font-family:'lucida grande', 'lucida sans unicode', verdana, arial, helvetica, sans-serif;font-size:11px;color:#666;line-height:14px;fill:#666;" text-anchor="end" transform="rotate(315 1065.3333333333333 649)"><tspan x="1065.3333333333333">15) 2011</tspan></text><text x="1134.6666666666665" y="649" style="font-family:'lucida grande', 'lucida sans unicode', verdana, arial, helvetica, sans-serif;font-size:11px;color:#666;line-height:14px;fill:#666;" text-anchor="end" transform="rotate(315 1134.6666666666665 649)"><tspan x="1134.6666666666665">16) 2012</tspan></text><text x="1204" y="649" style="font-family:'lucida grande', 'lucida sans unicode', verdana, arial, helvetica, sans-serif;font-size:11px;color:#666;line-height:14px;fill:#666;" text-anchor="end" transform="rotate(315 1204 649)"><tspan x="1204">17) 2013</tspan></text><text x="1273.3333333333333" y="649" style="font-family:'lucida grande', 'lucida sans unicode', verdana, arial, helvetica, sans-serif;font-size:11px;color:#666;line-height:14px;fill:#666;" text-anchor="end" transform="rotate(315 1273.3333333333333 649)"><tspan x="1273.3333333333333">18) 2014</tspan></text></g><g class="highcharts-axis-labels" ><text x="52" y="641.115625" style="font-family:'lucida grande', 'lucida sans unicode', verdana, arial, helvetica, sans-serif;font-size:11px;width:604px;color:#666;line-height:14px;fill:#666;" text-anchor="end"><tspan x="52">0.0</tspan></text><text x="52" y="576.115625" style="font-family:'lucida grande', 'lucida sans unicode', verdana, arial, helvetica, sans-serif;font-size:11px;width:604px;color:#666;line-height:14px;fill:#666;" text-anchor="end"><tspan x="52">10.0</tspan></text><text x="52" y="511.115625" style="font-family:'lucida grande', 'lucida sans unicode', verdana, arial, helvetica, sans-serif;font-size:11px;width:604px;color:#666;line-height:14px;fill:#666;" text-anchor="end"><tspan x="52">20.0</tspan></text><text x="52" y="446.115625" style="font-family:'lucida grande', 'lucida sans unicode', verdana, arial, helvetica, sans-serif;font-size:11px;width:604px;color:#666;line-height:14px;fill:#666;" text-anchor="end"><tspan x="52">30.0</tspan></text><text x="52" y="381.11562499999997" style="font-family:'lucida grande', 'lucida sans unicode', verdana, arial, helvetica, sans-serif;font-size:11px;width:604px;color:#666;line-height:14px;fill:#666;" text-anchor="end"><tspan x="52">40.0</tspan></text><text x="52" y="316.11562499999997" style="font-family:'lucida grande', 'lucida sans unicode', verdana, arial, helvetica, sans-serif;font-size:11px;width:604px;color:#666;line-height:14px;fill:#666;" text-anchor="end"><tspan x="52">50.0</tspan></text><text x="52" y="251.11562499999994" style="font-family:'lucida grande', 'lucida sans unicode', verdana, arial, helvetica, sans-serif;font-size:11px;width:604px;color:#666;line-height:14px;fill:#666;" text-anchor="end"><tspan x="52">60.0</tspan></text><text x="52" y="186.11562499999994" style="font-family:'lucida grande', 'lucida sans unicode', verdana, arial, helvetica, sans-serif;font-size:11px;width:604px;color:#666;line-height:14px;fill:#666;" text-anchor="end"><tspan x="52">70.0</tspan></text><text x="52" y="121.11562499999988" style="font-family:'lucida grande', 'lucida sans unicode', verdana, arial, helvetica, sans-serif;font-size:11px;width:604px;color:#666;line-height:14px;fill:#666;" text-anchor="end"><tspan x="52">80.0</tspan></text><text x="52" y="56.115625" style="font-family:'lucida grande', 'lucida sans unicode', verdana, arial, helvetica, sans-serif;font-size:11px;width:604px;color:#666;line-height:14px;fill:#666;" text-anchor="end"><tspan x="52">90.0</tspan></text></g><g class="highcharts-tooltip"  style="padding:0;white-space:nowrap;" visibility="hidden"><rect rx="5" ry="5" fill="none" x="0" y="0" width="10" height="10" stroke-width="5" fill-opacity="0.85"  stroke="black" stroke-opacity="0.049999999999999996" transform="translate(1, 1)"></rect><rect rx="5" ry="5" fill="none" x="0" y="0" width="10" height="10" stroke-width="3" fill-opacity="0.85"  stroke="black" stroke-opacity="0.09999999999999999" transform="translate(1, 1)"></rect><rect rx="5" ry="5" fill="none" x="0" y="0" width="10" height="10" stroke-width="1" fill-opacity="0.85"  stroke="black" stroke-opacity="0.15" transform="translate(1, 1)"></rect><rect rx="5" ry="5" fill="rgb(255,255,255)" x="0" y="0" width="10" height="10" stroke-width="2" fill-opacity="0.85"></rect><text x="5" y="18" style="font-family:'lucida grande', 'lucida sans unicode', verdana, arial, helvetica, sans-serif;font-size:12px;color:#333333;fill:#333333;" ></text></g><g class="highcharts-tracker" ><g visibility="visible"  transform="translate(60,50)" clip-path="url(#highcharts-7)"><path fill="none" d="M 24.666666666666664 131.2 L 34.666666666666664 131.2 C 34.666666666666664 131.2 76.26666666666667 488.1 104 498.1 C 131.73333333333332 508.1 145.6 508.1 173.33333333333331 508.1 C 201.06666666666666 508.1 214.9333333333333 508.1 242.66666666666666 494.9 C 270.4 481.69999999999993 284.26666666666665 402 312 402 C 339.7333333333333 402 353.6 418.76000000000005 381.3333333333333 425.6 C 409.0666666666667 432.44000000000005 422.9333333333333 432 450.6666666666667 436.2 C 478.4 440.4 492.2666666666667 446.6 520 446.6 C 547.7333333333333 446.6 561.6 288.3 589.3333333333333 288.3 C 617.0666666666666 288.3 630.9333333333333 375.1 658.6666666666666 375.1 C 686.4 375.1 700.2666666666667 331.3 727.9999999999999 331.3 C 755.7333333333332 331.3 769.6 483.3 797.3333333333333 483.3 C 825.0666666666666 483.3 838.9333333333332 403.80000000000007 866.6666666666666 394.1 C 894.4 384.4 908.2666666666667 394.1 935.9999999999999 384.4 C 963.7333333333332 374.69999999999993 977.6 364.9199999999999 1005.3333333333333 344.6 C 1033.0666666666668 324.27999999999986 1046.9333333333332 339.2000000000003 1074.6666666666667 282.8 C 1102.4 226.40000000000023 1116.2666666666669 62.6 1144 62.6 C 1171.7333333333331 62.6 1213.3333333333333 284.2 1213.3333333333333 284.2 L 1223.3333333333333 284.2"  stroke-linejoin="round" visibility="visible" stroke-opacity="0.0001" stroke="rgb(192,192,192)" stroke-width="21" style="cursor:pointer;"></path></g><g visibility="visible"  transform="translate(60,50)" clip-path="url(#highcharts-7)"><path fill="none" d="M 24.666666666666664 383.3 L 34.666666666666664 383.3 C 34.666666666666664 383.3 76.26666666666667 363.9 104 363.9 C 131.73333333333332 363.9 145.6 373.5 173.33333333333331 373.5 C 201.06666666666666 373.5 214.9333333333333 179.6 242.66666666666666 179.6 C 270.4 179.6 284.26666666666665 451.9 312 451.9 C 339.7333333333333 451.9 353.6 401.9 381.3333333333333 399 C 409.0666666666667 396.1 422.9333333333333 399 450.6666666666667 396.1 C 478.4 393.20000000000005 492.2666666666667 239.1 520 239.1 C 547.7333333333333 239.1 561.6 263.4000000000001 589.3333333333333 304.8 C 617.0666666666666 346.2000000000001 630.9333333333333 446.1 658.6666666666666 446.1 C 686.4 446.1 700.2666666666667 427.5 727.9999999999999 427.5 C 755.7333333333332 427.5 769.6 427.5 797.3333333333333 442.7 C 825.0666666666666 457.9 838.9333333333332 523.6 866.6666666666666 523.6 C 894.4 523.6 908.2666666666667 344.3 935.9999999999999 344.3 C 963.7333333333332 344.3 977.6 428.09999999999997 1005.3333333333333 443.9 C 1033.0666666666668 459.7 1046.9333333333332 459.7 1074.6666666666667 459.7 C 1102.4 459.7 1116.2666666666669 321 1144 321 C 1171.7333333333331 321 1213.3333333333333 321.8 1213.3333333333333 321.8 L 1223.3333333333333 321.8"  stroke-linejoin="round" visibility="visible" stroke-opacity="0.0001" stroke="rgb(192,192,192)" stroke-width="21" style="cursor:pointer;"></path></g><g visibility="visible"  transform="translate(60,50)" clip-path="url(#highcharts-7)"><path fill="none" d="M 24.666666666666664 534.6 L 34.666666666666664 534.6 C 34.666666666666664 534.6 76.26666666666667 532.8599999999999 104 521.8 C 131.73333333333332 510.74 145.6 502.7 173.33333333333331 479.3 C 201.06666666666666 455.9 214.9333333333333 404.8 242.66666666666666 404.8 C 270.4 404.8 284.26666666666665 518.5 312 518.5 C 339.7333333333333 518.5 353.6 476.6599999999999 381.3333333333333 457.9 C 409.0666666666667 439.13999999999993 422.9333333333333 424.7 450.6666666666667 424.7 C 478.4 424.7 492.2666666666667 533.1 520 533.1 C 547.7333333333333 533.1 561.6 420.2 589.3333333333333 420.2 C 617.0666666666666 420.2 630.9333333333333 434.6 658.6666666666666 434.6 C 686.4 434.6 700.2666666666667 424.1 727.9999999999999 424.1 C 755.7333333333332 424.1 769.6 477 797.3333333333333 483.3 C 825.0666666666666 489.6 838.9333333333332 489.6 866.6666666666666 489.6 C 894.4 489.6 908.2666666666667 344.3 935.9999999999999 344.3 C 963.7333333333332 344.3 977.6 364.22000000000014 1005.3333333333333 384.3 C 1033.0666666666668 404.38000000000017 1046.9333333333332 432.2 1074.6666666666667 444.7 C 1102.4 457.2 1116.2666666666669 457.2 1144 457.2 C 1171.7333333333331 457.2 1213.3333333333333 434.6 1213.3333333333333 434.6 L 1223.3333333333333 434.6"  stroke-linejoin="round" visibility="visible" stroke-opacity="0.0001" stroke="rgb(192,192,192)" stroke-width="21" style="cursor:pointer;"></path></g><g visibility="visible"  transform="translate(60,50)" clip-path="url(#highcharts-7)"><path fill="none" d="M 24.666666666666664 257.2 L 34.666666666666664 257.2 C 34.666666666666664 257.2 76.26666666666667 209.9 104 209.9 C 131.73333333333332 209.9 145.6 358.40000000000003 173.33333333333331 359.1 C 201.06666666666666 359.8 214.9333333333333 359.8 242.66666666666666 359.8 C 270.4 359.8 284.26666666666665 352.1 312 352.1 C 339.7333333333333 352.1 353.6 471.1 381.3333333333333 471.1 C 409.0666666666667 471.1 422.9333333333333 466.72000000000014 450.6666666666667 396.1 C 478.4 325.48000000000013 492.2666666666667 118 520 118 C 547.7333333333333 118 561.6 398.80000000000007 589.3333333333333 469.6 C 617.0666666666666 540.4 630.9333333333333 540.4 658.6666666666666 540.4 C 686.4 540.4 700.2666666666667 540.4 727.9999999999999 522 C 755.7333333333332 503.6 769.6 341 797.3333333333333 341 C 825.0666666666666 341 838.9333333333332 380.5 866.6666666666666 380.5 C 894.4 380.5 908.2666666666667 183.8 935.9999999999999 183.8 C 963.7333333333332 183.8 977.6 444.19999999999993 1005.3333333333333 486.9 C 1033.0666666666668 529.6 1046.9333333333332 529.6 1074.6666666666667 529.6 C 1102.4 529.6 1116.2666666666669 501.38 1144 471.1 C 1171.7333333333331 440.82000000000005 1213.3333333333333 378.2 1213.3333333333333 378.2 L 1223.3333333333333 378.2"  stroke-linejoin="round" visibility="visible" stroke-opacity="0.0001" stroke="rgb(192,192,192)" stroke-width="21" style="cursor:pointer;"></path></g><g visibility="visible"  transform="translate(60,50)" clip-path="url(#highcharts-7)"><path fill="none" d="M 24.666666666666664 408.5 L 34.666666666666664 408.5 C 34.666666666666664 408.5 76.26666666666667 521.0999999999999 104 521.8 C 131.73333333333332 522.5 145.6 521.8 173.33333333333331 522.5 C 201.06666666666666 523.2 214.9333333333333 585 242.66666666666666 585 C 270.4 585 284.26666666666665 585 312 585 C 339.7333333333333 585 353.6 552.7 381.3333333333333 552.7 C 409.0666666666667 552.7 422.9333333333333 567.14 450.6666666666667 573.6 C 478.4 580.0600000000001 492.2666666666667 585 520 585 C 547.7333333333333 585 561.6 420.2 589.3333333333333 420.2 C 617.0666666666666 420.2 630.9333333333333 463.09999999999997 658.6666666666666 480.9 C 686.4 498.69999999999993 700.2666666666667 492.44 727.9999999999999 509.2 C 755.7333333333332 525.96 769.6 558.0000000000001 797.3333333333333 564.7 C 825.0666666666666 571.4 838.9333333333332 571.4 866.6666666666666 571.4 C 894.4 571.4 908.2666666666667 404.4 935.9999999999999 404.4 C 963.7333333333332 404.4 977.6 450.78000000000014 1005.3333333333333 467 C 1033.0666666666668 483.2200000000001 1046.9333333333332 485.5 1074.6666666666667 485.5 C 1102.4 485.5 1116.2666666666669 387.7 1144 387.7 C 1171.7333333333331 387.7 1213.3333333333333 547.4 1213.3333333333333 547.4 L 1223.3333333333333 547.4"  stroke-linejoin="round" visibility="visible" stroke-opacity="0.0001" stroke="rgb(192,192,192)" stroke-width="21" style="cursor:pointer;"></path></g></g></svg>